<?xml version="1.0" encoding="UTF-8" standalone="no"?>
<!DOCTYPE svg PUBLIC "-//W3C//DTD SVG 1.1//EN" "http://www.w3.org/Graphics/SVG/1.1/DTD/svg11.dtd">
<svg xmlns:dc="http://purl.org/dc/elements/1.1/" xmlns:xl="http://www.w3.org/1999/xlink" xmlns="http://www.w3.org/2000/svg" version="1.1" viewBox="13.375871 4.9037996 12 28" width="12" height="28">
  <defs/>
  <metadata> Produced by OmniGraffle 7.18.4\n2021-03-12 19:08:19 +0000</metadata>
  <g id="Canvas_1" fill-opacity="1" stroke-dasharray="none" stroke="none" stroke-opacity="1" fill="none">
    <title>Canvas 1</title>
    <g id="Canvas_1_Layer_1">
      <title>Layer 1</title>
      <g id="Group_2">
        <title>g10</title>
        <g id="Group_3">
          <title>g6008</title>
          <g id="Group_6">
            <title>g5704</title>
            <g id="Graphic_7">
              <title>path5706</title>
              <path d="M 21.39111 8.530728 C 21.39111 10.533725 19.76718 12.157657 17.764182 12.157657 C 15.761591 12.157657 14.137254 10.533725 14.137254 8.530728 C 14.137254 6.527731 15.761591 4.9037996 17.764182 4.9037996 C 19.76718 4.9037996 21.39111 6.527731 21.39111 8.530728" fill="blue"/>
            </g>
          </g>
          <g id="Group_4">
            <title>g5708</title>
            <g id="Graphic_5">
              <title>path5710</title>
              <path d="M 21.281413 13.576819 C 20.731706 13.192471 19.73427 12.877598 19.063896 12.877598 L 16.626171 12.877598 C 15.955797 12.877598 14.958361 13.192471 14.408654 13.576819 L 14.374526 13.60079 C 13.824819 13.985138 13.375871 14.848092 13.375871 15.518467 L 13.375871 20.24156 C 13.375871 20.91234 13.604205 21.90612 13.88373 22.45095 C 14.16285 22.995782 14.483005 23.441073 14.594734 23.441073 C 14.706463 23.441073 14.888073 23.982248 14.998177 24.643278 L 15.81644 29.552043 C 15.926544 30.213073 16.42831 30.754248 16.930887 30.754248 L 18.75918 30.754248 C 19.261758 30.754248 19.763523 30.213073 19.873627 29.552043 L 20.69189 24.643278 C 20.801994 23.982248 20.983605 23.441073 21.095334 23.441073 C 21.207063 23.441073 21.52681 22.995782 21.806337 22.45095 C 22.085456 21.90612 22.314196 20.91234 22.314196 20.24156 L 22.314196 15.518467 C 22.314196 14.848092 21.865249 13.985138 21.315542 13.60079 Z" fill="blue"/>
            </g>
          </g>
        </g>
      </g>
    </g>
  </g>
</svg>
